# 3ds Max Wavefront OBJ Exporter v0.97b - (c)2007 guruware
# File Created: 20.11.2016 14:49:29

mtllib Plastic_box 1.mtl

#
# object COM_Box_PlasticBoxA_CokeplaBox01_SM01
#

v  -19.5000 35.0813 22.5000
v  -22.5000 35.0813 19.5000
v  -22.5000 -0.0000 19.5000
v  -19.5000 -0.0000 22.5000
v  -17.7626 1.2977 -19.5903
v  -19.5855 1.2977 -17.7626
v  -19.5883 1.2977 -11.7562
v  -19.5899 1.2977 11.7540
v  -19.5903 1.2977 17.7626
v  -17.7626 1.2977 19.5903
v  -11.7490 1.2977 19.5903
v  -11.7505 1.2977 -19.5903
v  11.7510 1.2977 19.5903
v  11.7496 1.2977 -19.5903
v  17.7626 1.2977 -19.5903
v  17.7626 1.2977 19.5903
v  19.5883 1.2977 11.7584
v  19.5855 1.2977 17.7626
v  19.5899 1.2977 -11.7521
v  19.5903 1.2977 -17.7626
v  -22.5000 0.0000 -19.5000
v  -19.5000 0.0000 -22.5000
v  19.5000 0.0000 -22.5000
v  19.5000 -0.0000 22.5000
v  22.5000 -0.0000 19.5000
v  22.5000 0.0000 -19.5000
v  -22.5000 35.0813 -19.5000
v  -22.5000 18.8528 -11.7480
v  -22.5000 18.8529 11.7531
v  -22.5000 24.9889 11.7531
v  -22.5000 26.3822 10.4473
v  -22.5000 26.3822 -10.4558
v  -22.5000 24.9889 -11.7480
v  10.4453 26.3822 22.5000
v  11.7521 24.9889 22.5000
v  19.5000 35.0813 22.5000
v  11.7521 18.8529 22.5000
v  -11.7500 18.8529 22.5000
v  -11.7500 24.9889 22.5000
v  -10.4578 26.3822 22.5000
v  19.5903 18.8529 -11.7523
v  22.5000 18.8529 -11.7526
v  22.5000 24.9889 -11.7526
v  19.5903 24.9900 -11.7519
v  22.5000 26.4201 -10.4504
v  19.5903 26.4201 -10.4499
v  -10.4453 26.3822 -19.5903
v  -10.4453 26.3822 -22.5000
v  10.4578 26.3822 -22.5000
v  10.4579 26.3802 -19.5903
v  11.7490 18.8516 -19.5903
v  11.7500 18.8529 -22.5000
v  -11.7521 18.8529 -22.5000
v  -11.7510 18.8529 -19.5903
v  11.7490 24.9896 -19.5903
v  11.7500 24.9889 -22.5000
v  -11.7521 24.9889 -22.5000
v  -11.7513 24.9889 -19.5903
v  22.5000 26.4201 10.4527
v  19.5903 26.4191 10.4532
v  19.5903 18.8498 11.7482
v  22.5000 18.8529 11.7480
v  -17.7626 35.0813 -19.5903
v  -19.5855 35.0813 -17.7626
v  17.7626 35.0813 -19.5903
v  19.5903 35.0813 -17.7626
v  19.5855 35.0813 17.7626
v  17.7626 35.0813 19.5903
v  -17.7626 35.0813 19.5903
v  -19.5903 35.0813 17.7626
v  -19.5903 26.3822 10.4473
v  -19.5903 26.3802 -10.4559
v  -19.5903 18.8529 -11.7478
v  -19.5903 18.8529 11.7522
v  -19.5000 35.0813 -22.5000
v  19.5000 35.0813 -22.5000
v  22.5000 35.0813 -19.5000
v  10.4453 26.3822 19.5903
v  -10.4579 26.3802 19.5903
v  -11.7490 18.8529 19.5903
v  11.7510 18.8529 19.5903
v  22.5000 35.0813 19.5000
v  22.5000 24.9889 11.7480
v  19.5903 24.9906 11.7482
v  -19.5903 24.9889 11.7523
v  -19.5903 24.9889 -11.7478
v  -11.7490 24.9889 19.5903
v  11.7510 24.9889 19.5903
v  19.5899 35.0813 -11.7494
v  19.5883 35.0813 11.7446
v  11.7496 35.0813 -19.5903
v  -11.7505 35.0813 -19.5903
v  -11.7490 35.0813 19.5903
v  11.7510 35.0813 19.5903
v  -19.5883 35.0813 -11.7425
v  -19.5899 35.0813 11.7512
# 96 vertices

vn -0.5054 -0.0000 0.8629
vn -0.7071 0.0000 0.7071
vn -0.3827 0.0000 0.9239
vn -0.0000 1.0000 0.0000
vn 0.0000 1.0000 0.0000
vn 0.0000 1.0000 -0.0000
vn -0.0000 1.0000 -0.0000
vn 0.0000 -1.0000 -0.0000
vn -0.0000 -1.0000 -0.0000
vn -1.0000 -0.0000 -0.0000
vn -1.0000 -0.0000 0.0000
vn -1.0000 0.0000 0.0000
vn -1.0000 0.0000 -0.0000
vn -0.0000 -0.0000 1.0000
vn -0.0000 0.0000 1.0000
vn 0.0000 0.0000 1.0000
vn 0.0001 -0.0000 1.0000
vn 0.0001 0.0000 1.0000
vn 0.0000 -0.3607 0.9327
vn 0.0001 -0.3610 0.9326
vn -0.0000 -0.6731 0.7396
vn 0.0001 -0.6732 0.7394
vn -0.0000 -1.0000 -0.0001
vn -0.0001 -1.0000 -0.0006
vn -0.0001 -1.0000 -0.0007
vn 0.0000 1.0000 0.0004
vn 0.0001 1.0000 0.0000
vn 0.0001 1.0000 -0.0000
vn -1.0000 0.0000 -0.0003
vn -0.9308 -0.3656 -0.0002
vn -0.9309 -0.3653 -0.0003
vn -0.7330 -0.6803 -0.0002
vn -0.7332 -0.6800 -0.0004
vn 1.0000 0.0000 -0.0003
vn 1.0000 0.0000 -0.0004
vn 0.9299 -0.3678 -0.0003
vn 0.9299 -0.3678 -0.0002
vn 0.7295 -0.6840 -0.0001
vn 0.7296 -0.6839 -0.0000
vn -0.0000 -1.0000 0.0000
vn 0.0003 -1.0000 -0.0000
vn -0.0010 1.0000 0.0000
vn -0.0011 1.0000 -0.0000
vn -0.0001 1.0000 0.0001
vn 0.0000 1.0000 0.0001
vn 0.7080 0.0000 0.7062
vn -0.3827 -0.0000 0.9239
vn -0.7071 -0.0000 0.7071
vn -0.7080 -0.0000 -0.7062
vn -0.7080 0.0000 -0.7062
vn 0.3827 -0.0000 -0.9239
vn 0.7071 -0.0000 -0.7071
vn -0.0001 -1.0000 0.0000
vn -0.0006 -1.0000 0.0001
vn -0.0007 -1.0000 0.0001
vn -0.7071 -0.0000 -0.7071
vn -0.7071 0.0000 -0.7071
vn 0.7071 0.0000 -0.7071
vn 0.3827 0.0000 -0.9239
vn 0.0000 -1.0000 0.0001
vn 0.0001 -1.0000 0.0006
vn 0.0001 -1.0000 0.0007
vn 0.7071 0.0000 0.7071
vn -0.0002 -0.6714 -0.7411
vn 0.0001 -0.6710 -0.7414
vn -0.0001 -0.3596 -0.9331
vn -0.0003 -0.3600 -0.9329
vn -0.0001 0.0000 -1.0000
vn -0.0003 0.0000 -1.0000
vn -0.0003 -0.3676 -0.9300
vn -0.0002 -0.3676 -0.9300
vn -0.0001 -0.6837 -0.7297
vn -0.0000 -0.6836 -0.7298
vn -0.0001 0.0000 1.0000
vn -0.0001 -0.3655 0.9308
vn -0.0002 -0.3653 0.9309
vn -0.0002 -0.6803 0.7329
vn -0.0004 -0.6800 0.7332
vn 0.7331 -0.6801 0.0003
vn 0.7332 -0.6800 0.0004
vn 0.9309 -0.3653 0.0004
vn 0.9308 -0.3654 0.0003
vn 1.0000 0.0000 0.0003
vn -1.0000 0.0000 0.0004
vn -0.9299 -0.3678 0.0003
vn -0.9299 -0.3678 0.0002
vn -0.7295 -0.6840 0.0002
vn -0.7297 -0.6838 0.0000
vn 0.0000 0.0000 -1.0000
vn 0.0000 -0.0000 -1.0000
vn 1.0000 0.0000 -0.0000
vn 1.0000 -0.0000 -0.0000
vn 1.0000 -0.0000 0.0000
vn 1.0000 0.0000 0.0000
vn -1.0000 -0.0001 -0.0000
vn -1.0000 -0.0002 -0.0001
vn -1.0000 -0.0002 -0.0003
vn -1.0000 -0.0002 -0.0002
vn -1.0000 -0.0001 -0.0006
vn -1.0000 0.0001 -0.0005
vn -1.0000 0.0000 -0.0005
vn -1.0000 0.0001 -0.0003
vn -1.0000 0.0000 -0.0001
vn -0.0000 -0.0000 -1.0000
vn -0.0000 0.0000 -1.0000
vn 1.0000 -0.0001 0.0000
vn 1.0000 -0.0002 0.0001
vn 1.0000 -0.0002 0.0003
vn 1.0000 -0.0001 0.0006
vn 1.0000 0.0000 0.0005
vn 1.0000 0.0001 0.0005
vn 1.0000 0.0001 0.0002
vn 1.0000 0.0000 0.0001
# 113 vertex normals

vt 0.4995 0.9546 0.9546
vt 0.4517 0.9546 0.9546
vt 0.4517 0.5723 0.5723
vt 0.4995 0.5723 0.5723
vt 0.0152 0.1436 0.1436
vt 0.0087 0.1372 0.1372
vt 0.0087 0.1157 0.1157
vt 0.0087 0.0313 0.0313
vt 0.0087 0.0098 0.0098
vt 0.0152 0.0029 0.0029
vt 0.0368 0.0029 0.0029
vt 0.0368 0.1436 0.1436
vt 0.1212 0.0029 0.0029
vt 0.1211 0.1436 0.1436
vt 0.1427 0.1436 0.1436
vt 0.1427 0.0029 0.0029
vt 0.1492 0.0313 0.0313
vt 0.1492 0.0098 0.0098
vt 0.1492 0.1152 0.1152
vt 0.1493 0.1372 0.1372
vt 0.0123 0.9546 0.9546
vt 0.0123 0.5723 0.5723
vt 0.0997 0.7778 0.7778
vt 0.3645 0.7778 0.7778
vt 0.3645 0.8446 0.8446
vt 0.3501 0.8602 0.8602
vt 0.1143 0.8607 0.8607
vt 0.0997 0.8446 0.8446
vt 0.8389 0.8599 0.8599
vt 0.8540 0.8446 0.8446
vt 0.9409 0.9546 0.9546
vt 0.9409 0.5723 0.5723
vt 0.8540 0.7777 0.7777
vt 0.5015 0.5723 0.5723
vt 0.5889 0.7778 0.7778
vt 0.5889 0.8447 0.8447
vt 0.5015 0.9547 0.9547
vt 0.6035 0.8599 0.8599
vt 0.9253 0.1733 0.1733
vt 0.9253 0.1533 0.1533
vt 0.9731 0.1533 0.1533
vt 0.9731 0.1733 0.1733
vt 0.9883 0.1533 0.1533
vt 0.9883 0.1733 0.1733
vt 0.0115 0.1733 0.1733
vt 0.0115 0.1533 0.1533
vt 0.1808 0.1533 0.1533
vt 0.1809 0.1733 0.1733
vt 0.2428 0.1733 0.1733
vt 0.2428 0.1533 0.1533
vt 0.4346 0.1533 0.1533
vt 0.4346 0.1733 0.1733
vt 0.1959 0.1733 0.1733
vt 0.1959 0.1533 0.1533
vt 0.4827 0.1533 0.1533
vt 0.4827 0.1733 0.1733
vt 0.4978 0.1533 0.1533
vt 0.4978 0.1733 0.1733
vt 0.5020 0.1733 0.1733
vt 0.5020 0.1533 0.1533
vt 0.6714 0.1533 0.1533
vt 0.6714 0.1733 0.1733
vt 0.7344 0.1733 0.1733
vt 0.7344 0.1533 0.1533
vt 0.9419 0.5623 0.5623
vt 0.9893 0.5623 0.5623
vt 0.9893 0.1802 0.1802
vt 0.9414 0.1802 0.1802
vt 0.5000 0.5623 0.5623
vt 0.5000 0.1802 0.1802
vt 0.4521 0.1802 0.1802
vt 0.4521 0.5623 0.5623
vt 0.9888 0.9546 0.9546
vt 0.9888 0.5723 0.5723
vt 0.6865 0.1533 0.1533
vt 0.6865 0.1733 0.1733
vt 0.5020 0.1802 0.1802
vt 0.5894 0.3857 0.3857
vt 0.5894 0.4526 0.4526
vt 0.5020 0.5623 0.5623
vt 0.6040 0.4678 0.4678
vt 0.8398 0.4678 0.4678
vt 0.8545 0.4526 0.4526
vt 0.8545 0.3857 0.3857
vt 0.1148 0.4683 0.4683
vt 0.0129 0.5623 0.5623
vt 0.1002 0.4526 0.4526
vt 0.0129 0.1802 0.1802
vt 0.1002 0.3857 0.3857
vt 0.3650 0.3857 0.3857
vt 0.3650 0.4526 0.4526
vt 0.3503 0.4683 0.4683
vt 0.3647 0.5623 0.5623
vt 0.1001 0.5623 0.5623
vt 0.1002 0.3853 0.3853
vt 0.1001 0.1802 0.1802
vt 0.3647 0.1802 0.1802
vt 0.5894 0.5623 0.5623
vt 0.8545 0.5623 0.5623
vt 0.8545 0.1802 0.1802
vt 0.5894 0.1802 0.1802
vt 0.5889 0.9547 0.9547
vt 0.8540 0.9546 0.9546
vt 0.5889 0.5723 0.5723
vt 0.8540 0.5723 0.5723
vt 0.0518 0.9930 0.9930
vt 0.0181 0.9930 0.9930
vt 0.0181 0.9598 0.9598
vt 0.0518 0.9598 0.9598
vt 0.1260 0.9930 0.9930
vt 0.4150 0.9930 0.9930
vt 0.4890 0.9598 0.9598
vt 0.4890 0.9930 0.9930
vt 0.5225 0.9930 0.9930
vt 0.5225 0.9598 0.9598
vt 0.5967 0.9930 0.9930
vt 0.8857 0.9930 0.9930
vt 0.9595 0.9598 0.9598
vt 0.9595 0.9930 0.9930
vt 0.9932 0.9930 0.9930
vt 0.9932 0.9598 0.9598
vt -0.8896 0.9930 0.9930
vt -0.8896 0.9598 0.9598
vt -0.8154 0.9930 0.9930
vt -0.4524 0.9598 0.9598
vt -0.5264 0.9930 0.9930
vt -0.4524 0.9930 0.9930
vt -0.4187 0.9930 0.9930
vt -0.4187 0.9598 0.9598
vt -0.3447 0.9930 0.9930
vt -0.0558 0.9930 0.9930
vt 0.3645 0.9546 0.9546
vt 0.0997 0.9546 0.9546
vt 0.0997 0.5723 0.5723
vt 0.3645 0.5723 0.5723
# 135 texture coords

g COM_Box_PlasticBoxA_CokeplaBox01_SM01
usemtl COM_Box_PlasticBoxA_CokeplaBox01_MIT01
s 1
f 1/1/1 2/2/2 3/3/2 
s 2
f 3/3/2 4/4/3 1/1/1 
s 3
f 5/5/4 6/6/5 7/7/4 
s 4
f 8/8/6 9/9/6 10/10/7 
s 5
f 7/7/4 8/8/6 10/10/7 
s 6
f 10/10/7 5/5/4 7/7/4 
s 7
f 5/5/4 10/10/7 11/11/6 
s 8
f 11/11/6 12/12/6 5/5/6 
s 9
f 12/12/6 11/11/6 13/13/6 
s 10
f 13/13/6 14/14/6 12/12/6 
s 11
f 15/15/6 14/14/6 13/13/6 
s 12
f 13/13/6 16/16/5 15/15/6 
s 13
f 15/15/6 16/16/5 17/17/5 
s 14
f 16/16/5 18/18/5 17/17/5 
s 15
f 17/17/5 19/19/6 15/15/6 
s 16
f 19/19/6 20/20/6 15/15/6 
s 17
f 4/10/8 3/9/8 21/6/8 
s 18
f 21/6/8 22/5/8 4/10/8 
s 19
f 4/10/8 22/5/8 23/15/9 
s 20
f 23/15/9 24/16/8 4/10/8 
s 21
f 25/18/8 24/16/8 23/15/9 
s 22
f 23/15/9 26/20/9 25/18/8 
s 23
f 27/21/10 21/22/10 28/23/10 
s 24
f 29/24/11 28/23/10 21/22/10 
s 25
f 21/22/10 3/3/10 29/24/11 
s 26
f 30/25/12 29/24/11 3/3/10 
s 27
f 3/3/10 2/2/12 30/25/12 
s 28
f 31/26/13 30/25/12 2/2/12 
s 29
f 32/27/10 31/26/13 2/2/12 
s 30
f 2/2/12 27/21/10 32/27/10 
s 31
f 32/27/10 27/21/10 33/28/10 
s 32
f 28/23/12 33/28/12 27/21/12 
s 33
f 34/29/14 35/30/14 36/31/14 
s 34
f 24/32/15 36/31/14 35/30/14 
s 35
f 35/30/14 37/33/15 24/32/15 
s 36
f 4/34/3 24/32/15 37/33/15 
s 37
f 37/33/15 38/35/16 4/34/3 
s 38
f 4/34/3 38/35/16 39/36/16 
s 39
f 39/36/16 1/37/1 4/34/3 
s 40
f 39/36/16 40/38/14 1/37/1 
s 41
f 1/37/1 40/38/14 34/29/14 
s 42
f 34/29/14 36/31/14 1/37/1 
s 43
f 41/39/17 42/40/18 43/41/19 
s 44
f 43/41/19 44/42/20 41/39/17 
s 45
f 44/42/20 43/41/19 45/43/21 
s 46
f 45/43/21 46/44/22 44/42/20 
s 47
f 47/45/23 48/46/8 49/47/24 
s 48
f 49/47/24 50/48/25 47/45/23 
s 49
f 51/49/26 52/50/26 53/51/27 
s 50
f 53/51/27 54/52/28 51/49/26 
s 51
f 52/50/29 51/49/29 55/53/30 
s 52
f 55/53/30 56/54/31 52/50/29 
s 53
f 56/54/31 55/53/30 50/48/32 
s 54
f 50/48/32 49/47/33 56/54/31 
s 55
f 54/52/34 53/51/35 57/55/36 
s 56
f 57/55/36 58/56/37 54/52/34 
s 57
f 58/56/37 57/55/36 48/57/38 
s 58
f 48/57/38 47/58/39 58/56/37 
s 59
f 46/59/8 45/60/40 59/61/41 
s 60
f 59/61/41 60/62/41 46/59/8 
s 61
f 61/63/42 62/64/43 42/40/44 
s 62
f 42/40/44 41/39/45 61/63/42 
s 63
f 63/65/46 64/66/46 6/67/46 
s 64
f 6/67/46 5/68/46 63/65/46 
s 65
f 65/69/3 15/70/47 20/71/48 
s 66
f 20/71/48 66/72/48 65/69/3 
s 67
f 67/73/49 18/74/50 16/32/50 
s 68
f 16/32/50 68/31/49 67/73/49 
s 69
f 69/1/51 10/4/51 9/3/52 
s 70
f 9/3/52 70/2/52 69/1/51 
s 71
f 71/59/53 31/60/8 32/61/54 
s 72
f 32/61/54 72/62/55 71/59/53 
s 73
f 73/63/7 28/64/7 29/40/7 
s 74
f 29/40/7 74/39/6 73/63/7 
s 75
f 75/65/56 22/68/57 21/67/56 
s 76
f 21/67/56 27/66/56 75/65/56 
s 77
f 76/69/51 77/72/58 26/71/58 
s 78
f 26/71/58 23/70/59 76/69/51 
s 79
f 78/45/60 34/46/40 40/47/61 
s 80
f 40/47/61 79/48/62 78/45/60 
s 81
f 80/49/6 38/50/6 37/51/6 
s 82
f 37/51/6 81/52/6 80/49/6 
s 83
f 82/73/63 36/31/63 24/32/63 
s 84
f 24/32/63 25/74/63 82/73/63 
s 85
f 60/62/64 59/61/65 83/75/66 
s 86
f 83/75/66 84/76/67 60/62/64 
s 87
f 84/76/67 83/75/66 62/64/68 
s 88
f 62/64/68 61/63/68 84/76/67 
s 89
f 74/39/69 29/40/69 30/41/70 
s 90
f 30/41/70 85/42/71 74/39/69 
s 91
f 85/42/71 30/41/70 31/43/72 
s 92
f 31/43/72 71/44/73 85/42/71 
s 93
f 28/64/74 73/63/74 86/76/75 
s 94
f 86/76/75 33/75/76 28/64/74 
s 95
f 33/75/76 86/76/75 72/62/77 
s 96
f 72/62/77 32/61/78 33/75/76 
s 97
f 79/48/79 40/47/80 39/54/81 
s 98
f 39/54/81 87/53/82 79/48/79 
s 99
f 87/53/82 39/54/81 38/50/83 
s 100
f 38/50/83 80/49/83 87/53/82 
s 101
f 81/52/84 37/51/84 35/55/85 
s 102
f 35/55/85 88/56/86 81/52/84 
s 103
f 88/56/86 35/55/85 34/57/87 
s 104
f 34/57/87 78/58/88 88/56/86 
s 105
f 23/77/59 52/78/89 56/79/89 
s 106
f 56/79/89 76/80/51 23/77/59 
s 107
f 56/79/89 49/81/89 76/80/51 
s 108
f 76/80/51 49/81/89 48/82/90 
s 109
f 48/82/90 75/65/90 76/80/51 
s 110
f 48/82/90 57/83/90 75/65/90 
s 111
f 22/68/89 75/65/90 57/83/90 
s 112
f 57/83/90 53/84/89 22/68/89 
s 113
f 23/77/59 22/68/89 53/84/89 
s 114
f 53/84/89 52/78/89 23/77/59 
s 115
f 59/85/91 82/86/92 83/87/91 
s 116
f 83/87/91 82/86/92 25/88/91 
s 117
f 25/88/91 62/89/93 83/87/91 
s 118
f 62/89/93 25/88/91 26/71/92 
s 119
f 26/71/92 42/90/93 62/89/93 
s 120
f 43/91/91 42/90/93 26/71/92 
s 121
f 26/71/92 77/72/91 43/91/91 
s 122
f 43/91/91 77/72/91 45/92/94 
s 123
f 45/92/94 77/72/91 82/86/92 
s 124
f 82/86/92 59/85/91 45/92/94 
s 125
f 89/93/95 44/91/11 46/92/11 
s 126
f 89/93/95 46/92/11 60/85/96 
s 127
f 60/85/96 90/94/97 89/93/95 
s 128
f 90/94/98 60/85/98 84/87/99 
s 129
f 90/94/97 84/87/99 67/86/99 
s 130
f 18/88/100 67/86/99 84/87/99 
s 131
f 84/87/99 61/95/101 18/88/100 
s 132
f 18/88/100 61/95/101 17/96/102 
s 133
f 19/97/13 17/96/102 61/95/101 
s 134
f 61/95/101 41/90/13 19/97/13 
s 135
f 19/97/13 41/90/13 20/71/103 
s 136
f 20/71/103 41/90/13 44/91/11 
s 137
f 44/91/11 66/72/10 20/71/103 
s 138
f 44/91/11 89/93/95 66/72/10 
s 139
f 55/79/15 91/98/15 50/81/15 
s 140
f 50/81/15 91/98/15 92/99/15 
s 141
f 92/99/15 47/82/16 50/81/15 
s 142
f 47/82/16 92/99/15 58/83/15 
s 143
f 92/99/15 63/65/15 58/83/15 
s 144
f 58/83/15 63/65/15 5/68/14 
s 145
f 5/68/14 54/84/14 58/83/15 
s 146
f 5/68/14 12/100/14 54/84/14 
s 147
f 51/78/14 54/84/14 12/100/14 
s 148
f 12/100/14 14/101/14 51/78/14 
s 149
f 51/78/14 14/101/14 15/77/47 
s 150
f 55/79/15 51/78/14 15/77/47 
s 151
f 15/77/47 65/80/3 55/79/15 
s 152
f 91/98/15 55/79/15 65/80/3 
s 153
f 79/38/104 93/102/90 94/103/90 
s 154
f 87/36/90 93/102/90 79/38/104 
s 155
f 87/36/90 69/37/51 93/102/90 
s 156
f 10/34/51 69/37/51 87/36/90 
s 157
f 87/36/90 80/35/105 10/34/51 
s 158
f 80/35/105 11/104/90 10/34/51 
s 159
f 11/104/90 80/35/105 81/33/90 
s 160
f 81/33/90 13/105/90 11/104/90 
s 161
f 81/33/90 16/32/104 13/105/90 
s 162
f 16/32/104 81/33/90 88/30/104 
s 163
f 88/30/104 68/31/104 16/32/104 
s 164
f 88/30/104 94/103/90 68/31/104 
s 165
f 78/29/104 94/103/90 88/30/104 
s 166
f 94/103/90 78/29/104 79/38/104 
s 167
f 67/106/6 68/107/6 36/108/6 
s 168
f 36/108/6 82/109/6 67/106/6 
s 169
f 90/110/6 67/106/6 82/109/6 
s 170
f 89/111/6 90/110/6 82/109/6 
s 171
f 82/109/6 77/112/6 89/111/6 
s 172
f 77/112/6 66/113/6 89/111/6 
s 173
f 65/114/6 66/113/6 77/112/6 
s 174
f 77/112/6 76/115/6 65/114/6 
s 175
f 91/116/6 65/114/6 76/115/6 
s 176
f 92/117/6 91/116/6 76/115/6 
s 177
f 76/115/6 75/118/6 92/117/6 
s 178
f 75/118/6 63/119/6 92/117/6 
s 179
f 64/120/6 63/119/6 75/118/6 
s 180
f 75/118/6 27/121/6 64/120/6 
s 181
f 64/122/6 27/123/6 95/124/6 
s 182
f 95/124/6 27/123/6 2/125/6 
s 183
f 2/125/6 96/126/6 95/124/6 
s 184
f 2/125/6 70/127/6 96/126/6 
s 185
f 69/128/6 70/127/6 2/125/6 
s 186
f 2/125/6 1/129/6 69/128/6 
s 187
f 93/130/6 69/128/6 1/129/6 
s 188
f 94/131/6 93/130/6 1/129/6 
s 189
f 1/129/6 36/108/6 94/131/6 
s 190
f 36/108/6 68/107/6 94/131/6 
s 191
f 96/132/106 71/26/92 72/27/107 
s 192
f 72/27/107 95/133/108 96/132/106 
s 193
f 72/27/107 86/28/109 95/133/108 
s 194
f 95/133/108 86/28/109 64/21/109 
s 195
f 64/21/109 86/28/109 73/23/110 
s 196
f 73/23/110 6/22/111 64/21/109 
s 197
f 73/23/110 7/134/112 6/22/111 
s 198
f 7/134/112 73/23/110 74/24/94 
s 199
f 74/24/94 8/135/113 7/134/112 
s 200
f 74/24/94 9/3/113 8/135/113 
s 201
f 9/3/113 74/24/94 85/25/93 
s 202
f 85/25/93 70/2/93 9/3/113 
s 203
f 85/25/93 96/132/106 70/2/93 
s 204
f 71/26/92 96/132/106 85/25/93 
# 0 polygons - 204 triangles

